# xmcd
#
# Track frame offsets: 
#        160
#        10947
#        19112
#        31100
#        38372
#        51667
#        65582
#        74625
#        86862
#        99180
#        109827
#        121090
#        131500
#        140882
#        153710
#        169827
#        182392
#        190767
#        203600
#        217065
#        231205
#
# Disc length: 3203 seconds
#
# Revision: 3
# Processed by: cddbd v1.5.2PL0 Copyright (c) Steve Scherf et al.
# Submitted via: ExactAudioCopy v1.3
#
DISCID=290c8115
DTITLE=Dewey Balfa - Dewey Balfa And Friends
DYEAR=1991
DGENRE=Cajun
TTITLE0=Grand Mamou
TTITLE1=Pauvre Hobo
TTITLE2=La Jolie Blonde
TTITLE3=The Back Door
TTITLE4=Valse De Balfa
TTITLE5=Blues a Leo Soileau
TTITLE6=Two step a Nathan Abshire
TTITLE7=Chere Tout Toute
TTITLE8=J'ai Passe Devant Ta Porte
TTITLE9=Les Veuves de la coulee
TTITLE10=Les Flume d'Enfer
TTITLE11=T'ai Petite et T'ai Meon
TTITLE12=Perrodin Two step
TTITLE13=Quand J'etais pauvre
TTITLE14=La Valse Du Canada
TTITLE15=La Valse de Deux Familles
TTITLE16=Cajun Fiddlesticks
TTITLE17=J'ai Pleurer
TTITLE18=La Reel de Joi
TTITLE19=La Mauvais Nouvelle
TTITLE20=Reel De Melon D'eau
EXTD=
EXTT0=
EXTT1=
EXTT2=
EXTT3=Menard\n
EXTT4=Balfa\n
EXTT5=
EXTT6=Abshire\n
EXTT7=
EXTT8=
EXTT9=
EXTT10=
EXTT11=
EXTT12=
EXTT13=
EXTT14=Vocal by Dewey Balfa\n
EXTT15=Balfa\n
EXTT16=Balfa\n
EXTT17=Vocal and piece by Dewey Balfa\n
EXTT18=Balfa\n
EXTT19=Vocal and piece by Dewey Balfa\n
EXTT20=Balfa\n
PLAYORDER=
